<svg xmlns="http://www.w3.org/2000/svg" viewBox="0 0 661 290" width="661" height="290">
	<defs>
		<clipPath clipPathUnits="userSpaceOnUse" id="cp1">
			<path d="M0 0L661 0L661 290L0 290Z" />
		</clipPath>
	</defs>
	<style>
		tspan { white-space:pre }
		.shp0 { fill: #ff9a2a } 
	</style>
	<g id="Page 1" clip-path="url(#cp1)">
		<path id="Path 1" class="shp0" d="M175.7 63.18C179.87 63.09 183.32 66.4 183.4 70.58C183.49 74.75 180.18 78.2 176 78.28C171.83 78.37 168.38 75.06 168.3 70.88C168.21 66.71 171.52 63.26 175.7 63.18ZM206.09 39.88C212.57 39.75 217.93 44.89 218.06 51.37C218.19 57.85 213.05 63.21 206.57 63.34C200.09 63.48 194.73 58.33 194.6 51.85C194.47 45.37 199.61 40.01 206.09 39.88ZM245.21 17.89C253.81 17.72 260.93 24.55 261.1 33.16C261.28 41.76 254.45 48.88 245.84 49.06C237.24 49.23 230.12 42.4 229.94 33.79C229.77 25.19 236.6 18.07 245.21 17.89ZM292.28 4.78C302.57 4.57 311.07 12.73 311.28 23.02C311.49 33.3 303.33 41.8 293.05 42.02C282.76 42.23 274.26 34.06 274.05 23.78C273.84 13.49 282 4.99 292.28 4.78ZM346.9 -0.32C359.51 -0.58 369.95 9.44 370.21 22.05C370.46 34.67 360.45 45.1 347.83 45.36C335.22 45.62 324.79 35.6 324.53 22.99C324.27 10.37 334.29 -0.06 346.9 -0.32ZM410.81 5.04C424.9 4.76 436.55 15.94 436.84 30.03C437.13 44.12 425.94 55.77 411.86 56.06C397.77 56.34 386.12 45.16 385.83 31.07C385.54 16.99 396.73 5.33 410.81 5.04ZM473.77 29.74C490.05 29.4 503.52 42.33 503.85 58.62C504.19 74.9 491.26 88.37 474.97 88.71C458.69 89.04 445.22 76.11 444.89 59.82C444.55 43.54 457.48 30.07 473.77 29.74ZM493.25 226.77C489.09 226.86 485.66 223.56 485.57 219.4C485.49 215.25 488.79 211.81 492.94 211.73C497.09 211.64 500.53 214.94 500.62 219.09C500.7 223.25 497.4 226.68 493.25 226.77ZM462.98 249.96C456.53 250.1 451.2 244.97 451.06 238.52C450.93 232.07 456.05 226.73 462.51 226.6C468.96 226.47 474.29 231.59 474.43 238.04C474.56 244.5 469.44 249.83 462.98 249.96ZM424.04 271.86C415.47 272.04 408.38 265.23 408.21 256.66C408.03 248.1 414.83 241.01 423.4 240.83C431.97 240.66 439.06 247.46 439.23 256.03C439.41 264.6 432.6 271.68 424.04 271.86ZM377.16 284.92C366.92 285.13 358.45 277 358.24 266.76C358.03 256.52 366.16 248.05 376.4 247.84C386.64 247.63 395.11 255.76 395.32 266C395.53 276.24 387.4 284.71 377.16 284.92ZM322.78 290C310.22 290.25 299.83 280.28 299.58 267.72C299.32 255.16 309.29 244.77 321.85 244.51C334.41 244.26 344.8 254.23 345.06 266.79C345.31 279.35 335.34 289.74 322.78 290ZM259.14 284.65C245.12 284.94 233.51 273.8 233.23 259.78C232.94 245.75 244.08 234.15 258.1 233.86C272.13 233.57 283.73 244.71 284.02 258.74C284.31 272.76 273.17 284.37 259.14 284.65ZM196.46 260.07C180.24 260.4 166.83 247.52 166.5 231.31C166.17 215.09 179.04 201.68 195.26 201.35C211.47 201.02 224.88 213.89 225.22 230.11C225.55 246.32 212.67 259.73 196.46 260.07Z" />
		<path id="Path 2" fill-rule="evenodd" class="shp0" d="M571.71 180.65C570.47 180.65 569.65 179.61 569.92 178.34C570.78 174.35 571.64 170.37 572.5 166.38C572.78 165.1 574.05 164.06 575.29 164.06L578.43 164.06C579.61 164.06 580.73 163.11 580.98 161.96C582.31 155.8 583.61 149.62 584.9 143.47C586.2 137.32 587.56 131.15 588.89 124.99C589.98 119.97 592.21 114.14 597.42 111.21C602.25 108.5 609.91 108.12 614.81 108.12L659.31 108.12C660.55 108.12 661.37 109.18 661.09 110.45C659.25 119.05 657.41 127.63 655.56 136.21C653.72 144.79 651.88 153.37 650.03 161.96C649.79 163.11 650.56 164.06 651.68 164.06L654.81 164.06C656.12 164.06 657.01 165.1 656.74 166.38C655.88 170.36 655.03 174.35 654.17 178.34C653.89 179.61 652.56 180.65 651.25 180.65L571.71 180.65ZM629.24 161.96C630.53 155.94 631.83 149.92 633.12 143.9C634.41 137.89 635.71 131.87 637 125.85C637.25 124.7 636.54 123.75 635.36 123.75L611.44 123.75C610.33 123.75 609.15 124.69 608.9 125.85C607.6 131.87 606.27 137.88 605.01 143.9C603.75 149.91 602.48 155.94 601.18 161.96C600.94 163.11 601.71 164.06 602.82 164.06L626.69 164.06C627.87 164.06 628.99 163.11 629.24 161.96ZM499.36 180.65C498.05 180.65 497.23 179.61 497.51 178.34C499.97 167.01 502.43 155.69 504.88 144.38C507.34 133.07 509.79 121.77 512.25 110.45C512.52 109.18 513.8 108.12 515.1 108.12L573.91 108.12C575.15 108.12 575.97 109.18 575.69 110.45C574.9 114.11 574.11 117.78 573.32 121.43C573.05 122.7 571.77 123.75 570.53 123.75L532.37 123.75C531.19 123.75 530.07 124.69 529.82 125.85C529.1 129.19 528.37 132.52 527.65 135.85C527.4 137.02 528.11 137.96 529.29 137.96L563.67 137.96C564.98 137.96 565.8 139 565.52 140.27C564.99 142.73 564.46 145.19 563.93 147.64C563.66 148.91 562.39 149.95 561.08 149.95L526.69 149.95C525.51 149.95 524.39 150.89 524.14 152.05C523.42 155.35 522.71 158.66 521.99 161.96C521.74 163.11 522.45 164.06 523.63 164.06L561.82 164.06C563.06 164.06 563.88 165.1 563.61 166.38C562.75 170.37 561.89 174.35 561.02 178.34C560.75 179.61 559.48 180.65 558.23 180.65L499.36 180.65ZM467.24 180.65C465.94 180.65 465.18 179.61 465.46 178.34C467.37 169.58 469.27 160.84 471.17 152.08C473.07 143.34 474.98 134.59 476.88 125.85C477.14 124.68 476.36 123.74 475.18 123.74L451.98 123.74C450.81 123.74 449.68 124.68 449.43 125.84C448.12 131.87 446.81 137.89 445.49 143.9C444.18 149.92 442.87 155.94 441.56 161.97C440.7 165.92 438.73 173.71 435.44 176.83C431.81 180.26 424.2 180.65 420.02 180.65L411.97 180.65C410.73 180.65 409.91 179.61 410.19 178.34C411.06 174.35 411.93 170.37 412.8 166.38C413.08 165.11 414.35 164.06 415.6 164.06L418.74 164.06C419.91 164.06 421.03 163.12 421.29 161.97C422.63 155.8 423.98 149.63 425.32 143.47C426.67 137.32 428.01 131.15 429.36 124.99C430.44 120.02 432.68 114.28 437.77 111.29C442.49 108.53 449.83 108.12 454.73 108.12L499.23 108.12C500.53 108.12 501.35 109.18 501.07 110.45C498.62 121.77 496.16 133.07 493.7 144.38C491.24 155.69 488.79 167.01 486.33 178.34C486.05 179.61 484.78 180.65 483.47 180.65L467.24 180.65ZM354.74 180.65C350.74 180.65 346.73 180.45 343.05 179.64C339.44 178.83 336.37 177.15 335.29 173.59C334.32 170.38 335.17 165.52 335.95 161.97C337.27 155.94 338.59 149.92 339.92 143.9C341.24 137.88 342.56 131.87 343.88 125.84C345 120.74 347.28 114.25 352.59 111.2C357.38 108.45 365.68 108.12 370.64 108.12L413.5 108.12C414.74 108.12 415.56 109.18 415.28 110.45C414.48 114.11 413.68 117.77 412.88 121.43C412.6 122.7 411.33 123.74 410.09 123.74L367.22 123.74C366.04 123.74 364.92 124.68 364.67 125.84C363.34 131.87 362.02 137.88 360.7 143.9C359.38 149.92 358.06 155.94 356.74 161.97C356.49 163.13 357.2 164.06 358.37 164.06L401.34 164.06C402.58 164.06 403.4 165.11 403.12 166.38C402.25 170.37 401.38 174.36 400.51 178.34C400.23 179.61 398.95 180.65 397.71 180.65L354.74 180.65ZM303.91 180.65C302.67 180.65 301.85 179.62 302.13 178.34C304.06 169.59 305.98 160.84 307.91 152.09C309.84 143.34 311.76 134.59 313.69 125.84C313.94 124.68 313.24 123.74 312.06 123.74L285.07 123.74C283.96 123.74 282.77 124.68 282.51 125.84C280.58 134.59 278.65 143.34 276.72 152.09C274.79 160.84 272.86 169.59 270.93 178.34C270.65 179.62 269.37 180.65 268.13 180.65L251.84 180.65C250.6 180.65 249.78 179.62 250.06 178.34C252.57 167.02 255.07 155.7 257.57 144.38C260.07 133.07 262.57 121.76 265.06 110.44C265.35 109.17 266.62 108.12 267.86 108.12L336.14 108.12C337.38 108.12 338.2 109.17 337.92 110.44C335.43 121.76 332.95 133.07 330.46 144.38C327.97 155.7 325.49 167.02 323 178.34C322.72 179.62 321.44 180.65 320.2 180.65L303.91 180.65ZM220.51 180.65C219.27 180.65 218.45 179.62 218.73 178.34C220.17 171.85 221.61 165.35 223.05 158.86C224.49 152.36 225.92 145.87 227.36 139.37C227.57 138.43 227.1 137.62 226.3 137.36C225.45 137.08 224.45 137.43 223.76 138.2C217.59 145.1 211.49 152.02 205.38 158.91C199.27 165.81 193.17 172.74 187.05 179.63C186.45 180.3 185.64 180.65 184.86 180.65L167.46 180.65C166.15 180.65 165.34 179.62 165.62 178.34C168.14 167.02 170.65 155.7 173.17 144.38C175.68 133.07 178.2 121.75 180.71 110.44C180.99 109.17 182.27 108.12 183.58 108.12L198.93 108.12C200.17 108.12 200.99 109.17 200.7 110.44C199.26 116.94 197.82 123.43 196.38 129.91C194.94 136.4 193.5 142.89 192.06 149.38C191.85 150.33 192.27 151.12 193.12 151.4C193.91 151.66 194.97 151.33 195.66 150.56C201.77 143.66 207.87 136.75 213.98 129.85C220.08 122.96 226.18 116.06 232.35 109.16C232.95 108.49 233.69 108.12 234.54 108.12L251.79 108.12C253.1 108.12 253.91 109.17 253.63 110.44C251.13 121.76 248.63 133.07 246.13 144.38C243.62 155.7 241.12 167.02 238.62 178.34C238.33 179.62 237.06 180.65 235.75 180.65L220.51 180.65ZM134.95 180.65C133.71 180.65 132.89 179.62 133.18 178.34C135.12 169.59 137.08 160.84 139.02 152.09C140.97 143.34 142.92 134.59 144.87 125.84C145.13 124.68 144.36 123.73 143.25 123.73L120.05 123.73C118.87 123.73 117.75 124.68 117.49 125.84C116.14 131.86 114.83 137.89 113.46 143.9C112.08 149.94 110.7 155.95 109.36 161.97C108.48 165.93 106.45 173.71 103.16 176.84C99.56 180.25 91.91 180.65 87.72 180.65L79.81 180.65C78.5 180.65 77.68 179.62 77.97 178.34C78.86 174.36 79.75 170.38 80.64 166.39C80.93 165.12 82.21 164.07 83.52 164.07L86.59 164.07C87.7 164.07 88.89 163.13 89.15 161.97C90.53 155.81 91.94 149.65 93.35 143.47C94.76 137.32 96.11 131.14 97.49 124.98C98.6 120 100.8 114.27 105.9 111.29C110.64 108.52 118.04 108.12 122.88 108.12L167.37 108.12C168.61 108.12 169.43 109.17 169.14 110.44C166.63 121.75 164.11 133.07 161.6 144.38C159.08 155.7 156.56 167.02 154.04 178.34C153.76 179.62 152.48 180.65 151.24 180.65L134.95 180.65ZM60.81 108.12C65.77 108.12 74.06 108.44 77.63 111.19C81.58 114.24 80.99 120.73 79.84 125.84C78.5 131.86 77.12 137.87 75.8 143.9C74.49 149.92 73.17 155.95 71.82 161.97C71.03 165.5 69.67 170.42 67.33 173.59C64.69 177.14 60.85 178.84 56.88 179.64C52.77 180.47 48.67 180.65 44.62 180.65L1.77 180.65C0.46 180.65 -0.22 179.62 0.07 178.34C0.96 174.36 1.86 170.38 2.75 166.39C3.04 165.12 4.19 164.07 5.5 164.07L48.33 164.07C49.51 164.07 50.7 163.13 50.96 161.97C51.7 158.67 52.44 155.36 53.18 152.05C53.44 150.9 52.67 149.96 51.5 149.96L19.98 149.96C18.74 149.96 17.93 148.91 18.22 147.64C18.77 145.19 19.32 142.73 19.87 140.27C20.16 138.99 21.44 137.95 22.68 137.95L54.12 137.95C55.3 137.95 56.49 137.01 56.75 135.85C57.5 132.51 58.25 129.18 58.99 125.84C59.25 124.67 58.49 123.73 57.31 123.73L14.57 123.73C13.26 123.73 12.58 122.69 12.87 121.42C13.69 117.76 14.51 114.1 15.33 110.44C15.62 109.17 16.77 108.12 18.08 108.12L60.81 108.12Z" />
	</g>
</svg>